<svg xmlns="http://www.w3.org/2000/svg" xmlns:xlink="http://www.w3.org/1999/xlink" version="1.1" width="256" height="256" viewBox="0 0 256 256" xml:space="preserve">

<defs>
</defs>
<g style="stroke: none; stroke-width: 0; stroke-dasharray: none; stroke-linecap: butt; stroke-linejoin: miter; stroke-miterlimit: 10; fill: none; fill-rule: nonzero; opacity: 1;" transform="translate(1.4065934065934016 1.4065934065934016) scale(2.81 2.81)" >
	<path d="M 22.666 13.31 L 22.666 13.31 c -0.77 -0.319 -0.83 -1.031 -0.83 -1.242 c 0 -0.211 0.06 -0.923 0.829 -1.242 c 0.388 -0.161 0.69 -0.463 0.85 -0.85 s 0.161 -0.815 0 -1.203 l -1.023 -2.471 c -0.332 -0.8 -1.252 -1.182 -2.053 -0.85 c -0.77 0.319 -1.316 -0.142 -1.464 -0.291 c -0.149 -0.149 -0.61 -0.695 -0.291 -1.465 c 0.16 -0.388 0.16 -0.815 0 -1.202 c -0.161 -0.388 -0.463 -0.69 -0.85 -0.85 l -2.471 -1.023 c -0.8 -0.331 -1.721 0.05 -2.053 0.851 C 12.99 2.24 12.279 2.3 12.068 2.3 s -0.923 -0.06 -1.242 -0.829 c -0.16 -0.388 -0.462 -0.69 -0.85 -0.851 c -0.388 -0.161 -0.815 -0.161 -1.203 0 l -2.47 1.023 c -0.388 0.161 -0.69 0.462 -0.851 0.85 c -0.161 0.388 -0.161 0.815 0 1.203 c 0.319 0.77 -0.142 1.316 -0.291 1.465 C 5.012 5.31 4.467 5.772 3.697 5.453 c -0.388 -0.16 -0.815 -0.16 -1.203 0 c -0.388 0.161 -0.69 0.463 -0.85 0.85 L 0.62 8.773 c -0.161 0.388 -0.161 0.815 0 1.203 s 0.463 0.69 0.85 0.85 C 2.24 11.145 2.3 11.857 2.3 12.068 s -0.06 0.923 -0.83 1.242 c -0.8 0.332 -1.182 1.253 -0.85 2.053 l 1.023 2.47 c 0.161 0.388 0.463 0.69 0.85 0.85 c 0.387 0.16 0.814 0.161 1.203 0 c 0.769 -0.318 1.315 0.142 1.465 0.292 c 0.149 0.149 0.61 0.695 0.291 1.465 c -0.332 0.8 0.05 1.721 0.85 2.053 l 2.47 1.023 c 0.194 0.08 0.398 0.12 0.602 0.12 s 0.407 -0.04 0.601 -0.121 c 0.388 -0.161 0.69 -0.463 0.85 -0.85 c 0.319 -0.77 1.031 -0.83 1.242 -0.83 l 0 0 c 0.211 0 0.923 0.06 1.242 0.83 c 0.332 0.8 1.253 1.18 2.053 0.85 l 2.471 -1.023 c 0.8 -0.332 1.181 -1.253 0.85 -2.053 c -0.319 -0.77 0.142 -1.316 0.292 -1.465 c 0.149 -0.149 0.694 -0.611 1.465 -0.291 c 0.801 0.33 1.721 -0.05 2.053 -0.851 l 1.023 -2.47 C 23.847 14.562 23.466 13.641 22.666 13.31 z M 12.068 18.495 c -3.544 0 -6.427 -2.883 -6.427 -6.427 s 2.883 -6.427 6.427 -6.427 s 6.427 2.883 6.427 6.427 S 15.612 18.495 12.068 18.495 z" style="stroke: none; stroke-width: 1; stroke-dasharray: none; stroke-linecap: butt; stroke-linejoin: miter; stroke-miterlimit: 10; fill: rgb(0,0,0); fill-rule: nonzero; opacity: 1;" transform=" matrix(3.89 0 0 3.89 -1.9444444444444287 -1.9444444444444287) " stroke-linecap="round" />
</g>
</svg>